# xmcd
#
# Track frame offsets:
# 150
# 16882
# 29129
# 46660
# 60751
# 78831
# 93122
# 107673
# 118191
# 138502
#
# Disc length: 2061 seconds
#
#
# Revision: 0
# Processed by: cddbd v1.5.1PL2 Copyright (c) Steve Scherf et al.
# Submitted via: FreeRIP 2.945 
#
DISCID=72080b0a
DTITLE=Wlodzimierz Mazon - Dla Ciebie
DYEAR=2003
DGENRE=Blues
TTITLE0=vis a vis
TTITLE1=kot
TTITLE2=ko造sanka 1
TTITLE3=r騜e
TTITLE4=kochanie moje
TTITLE5=panna z這ta
TTITLE6=ko造sanka 2
TTITLE7=cz這wieczek
TTITLE8=suknia pe軟a gwiazd
TTITLE9=ciep這
EXTD=
EXTT0=
EXTT1=
EXTT2=
EXTT3=
EXTT4=
EXTT5=
EXTT6=
EXTT7=
EXTT8=
EXTT9=
PLAYORDER=
